<?xml version="1.0" standalone="no"?>
<!DOCTYPE svg PUBLIC "-//W3C//DTD SVG 20010904//EN"
 "http://www.w3.org/TR/2001/REC-SVG-20010904/DTD/svg10.dtd">
<svg version="1.0" xmlns="http://www.w3.org/2000/svg"
 width="512.000000pt" height="512.000000pt" viewBox="0 0 512.000000 512.000000"
 preserveAspectRatio="xMidYMid meet">
<metadata>
Created by potrace 1.16, written by Peter Selinger 2001-2019
</metadata>
<g transform="translate(0.000000,512.000000) scale(0.100000,-0.100000)"
fill="#000000" stroke="none">
<path d="M1440 5106 c-175 -48 -319 -194 -365 -371 -13 -51 -15 -167 -15 -800
l0 -741 -509 -287 c-280 -159 -517 -297 -527 -309 -28 -30 -25 -99 3 -130 13
-13 250 -150 528 -304 l504 -279 1 -720 c0 -794 -1 -779 63 -899 63 -119 187
-216 322 -252 40 -11 259 -14 1126 -14 1046 0 1079 1 1141 20 177 54 313 208
353 395 19 89 19 119 0 160 -29 61 -116 75 -164 27 -22 -22 -29 -40 -34 -92
-13 -128 -97 -245 -205 -287 -44 -17 -109 -18 -1047 -21 -1038 -3 -1099 -1
-1176 39 -54 27 -111 86 -140 145 l-24 49 -3 664 c-2 535 0 662 10 658 7 -2
289 -158 627 -346 493 -274 622 -341 651 -341 29 0 159 68 659 345 342 190
628 348 636 352 13 4 15 -23 15 -190 0 -125 4 -205 11 -221 16 -34 72 -60 113
-52 18 4 44 18 57 32 24 26 24 26 27 292 l3 267 495 274 c272 151 504 286 517
299 29 31 31 100 3 131 -10 11 -243 147 -517 302 l-499 282 0 731 c0 803 -1
809 -60 927 -41 80 -134 178 -208 217 -124 65 -56 62 -1246 61 -830 0 -1091
-3 -1126 -13z m439 -341 c62 -165 84 -202 144 -246 78 -56 102 -59 547 -59
446 0 464 2 542 59 62 46 90 94 150 257 l53 146 150 -5 c104 -3 164 -10 197
-22 65 -23 141 -94 175 -163 l28 -57 0 -1329 0 -1328 -645 -359 c-355 -197
-652 -359 -660 -359 -8 0 -301 159 -650 354 l-635 353 0 1339 0 1339 24 49
c29 59 86 118 140 146 57 28 127 38 265 36 l119 -1 56 -150z m1181 78 c-15
-43 -33 -90 -38 -104 -6 -15 -23 -36 -38 -48 -26 -21 -34 -21 -411 -21 -428 0
-427 0 -456 67 -17 40 -67 173 -67 179 0 2 234 4 519 4 l520 0 -29 -77z
m-2003 -2710 c-2 -2 -167 87 -366 198 -199 111 -360 204 -357 206 3 3 166 97
363 208 l358 202 3 -405 c1 -223 1 -407 -1 -409z m3393 597 c179 -101 329
-186 333 -190 6 -6 -502 -296 -680 -389 l-23 -12 0 401 0 400 23 -14 c12 -7
168 -96 347 -196z"/>
<path d="M2155 3814 c-66 -36 -130 -77 -142 -90 -43 -47 -22 -139 36 -164 46
-19 84 -6 221 74 108 63 127 78 137 107 24 74 -18 139 -91 139 -32 0 -68 -15
-161 -66z"/>
<path d="M2737 3854 c-33 -33 -42 -73 -24 -116 12 -28 36 -47 143 -108 105
-60 137 -74 172 -75 37 0 48 5 73 33 53 60 35 125 -50 176 -207 124 -264 140
-314 90z"/>
<path d="M1648 3526 c-112 -59 -232 -133 -248 -154 -31 -38 -27 -97 9 -133 48
-48 89 -41 229 37 64 37 127 75 138 86 63 57 15 178 -71 178 -16 0 -42 -6 -57
-14z"/>
<path d="M3349 3512 c-29 -26 -34 -37 -34 -75 0 -60 14 -74 162 -157 139 -79
181 -88 228 -47 37 32 45 101 16 138 -30 39 -248 160 -297 166 -35 5 -46 1
-75 -25z"/>
<path d="M2531 3490 c-63 -27 -759 -426 -778 -447 l-23 -24 0 -472 c0 -432 2
-474 18 -493 9 -12 190 -118 402 -235 299 -166 393 -213 420 -213 27 0 127 51
417 213 215 119 391 224 403 238 19 25 20 39 20 485 0 406 -2 463 -16 487 -12
20 -123 88 -400 245 -211 119 -396 218 -411 221 -15 2 -39 0 -52 -5z m302
-369 l255 -145 -256 -143 c-142 -78 -262 -142 -268 -140 -17 4 -513 281 -510
285 11 10 512 291 517 289 4 -1 121 -67 262 -146z m-545 -521 l172 -95 0 -308
0 -307 -52 29 c-29 17 -145 81 -258 144 l-205 114 -3 307 -2 308 88 -49 c49
-26 166 -91 260 -143z m910 -116 l-3 -305 -259 -145 c-142 -79 -261 -144 -263
-144 -2 0 -2 138 -1 307 l3 306 255 143 c140 78 258 143 263 143 4 1 6 -137 5
-305z"/>
<path d="M3899 1041 c-50 -51 -36 -136 29 -167 50 -24 99 -10 130 36 69 102
-72 218 -159 131z"/>
<path d="M2300 617 c-34 -17 -63 -79 -55 -117 4 -16 20 -41 37 -55 l31 -26
264 3 265 3 24 28 c26 30 33 92 14 128 -24 44 -54 49 -312 49 -173 0 -250 -4
-268 -13z"/>
</g>
</svg>
