<?xml version="1.0" standalone="no"?>
<!DOCTYPE svg PUBLIC "-//W3C//DTD SVG 20010904//EN"
 "http://www.w3.org/TR/2001/REC-SVG-20010904/DTD/svg10.dtd">
<svg version="1.0" xmlns="http://www.w3.org/2000/svg"
 width="512.000000pt" height="512.000000pt" viewBox="0 0 512.000000 512.000000"
 preserveAspectRatio="xMidYMid meet">
<metadata>
Created by potrace 1.16, written by Peter Selinger 2001-2019
</metadata>
<g transform="translate(0.000000,512.000000) scale(0.100000,-0.100000)"
fill="#000000" stroke="none">
<path d="M3400 4799 c-258 -18 -513 -106 -740 -257 -121 -80 -319 -280 -403
-407 -147 -223 -235 -478 -253 -732 l-7 -89 -81 18 c-176 39 -440 40 -621 3
-293 -60 -552 -200 -771 -419 -218 -218 -348 -456 -416 -757 -20 -91 -23 -130
-23 -319 0 -172 4 -232 19 -300 42 -195 117 -377 221 -536 31 -48 54 -92 52
-98 -3 -6 -71 -114 -151 -241 -149 -235 -162 -266 -136 -315 25 -46 47 -44
445 45 l376 83 87 -39 c292 -128 658 -158 974 -78 284 71 525 213 734 432 238
249 391 589 411 915 5 80 9 102 19 98 114 -44 513 -57 674 -23 122 26 244 64
327 102 l72 33 358 -79 c347 -77 403 -86 438 -73 23 9 48 62 41 90 -4 13 -69
122 -145 243 -77 121 -145 229 -151 240 -9 17 -5 29 23 68 194 273 297 654
268 991 -34 384 -180 700 -448 965 -319 316 -734 468 -1193 436z m267 -174
c40 -4 118 -17 173 -31 284 -68 546 -234 726 -458 132 -164 220 -340 271 -543
26 -100 28 -123 28 -313 0 -193 -2 -211 -28 -315 -50 -192 -119 -339 -230
-488 -42 -56 -59 -89 -60 -112 -1 -25 26 -74 111 -210 62 -98 111 -179 110
-181 -2 -1 -124 24 -272 57 -148 32 -283 59 -301 59 -18 0 -70 -18 -116 -39
-262 -123 -577 -153 -874 -85 -38 9 -74 20 -78 24 -5 4 -17 57 -27 116 -80
467 -387 879 -817 1095 l-122 62 5 76 c24 356 157 655 399 896 228 228 516
364 835 394 83 8 120 8 267 -4z m-1937 -1439 c333 -22 695 -215 916 -490 132
-164 220 -340 271 -543 26 -100 28 -122 28 -313 0 -181 -3 -216 -24 -300 -136
-552 -569 -952 -1126 -1040 -99 -16 -315 -13 -418 5 -108 19 -255 65 -350 111
-41 19 -87 34 -107 34 -19 0 -154 -27 -300 -59 -146 -32 -267 -57 -268 -56 -2
2 46 82 107 178 132 208 134 218 68 305 -131 171 -225 387 -263 605 -24 140
-15 397 20 535 125 497 509 879 1002 998 99 24 277 44 334 38 14 -2 63 -5 110
-8z"/>
<path d="M2880 3760 l0 -80 640 0 640 0 0 80 0 80 -640 0 -640 0 0 -80z"/>
<path d="M2880 3280 l0 -80 640 0 640 0 0 80 0 80 -640 0 -640 0 0 -80z"/>
<path d="M3200 2800 l0 -80 480 0 480 0 0 80 0 80 -480 0 -480 0 0 -80z"/>
<path d="M1097 2302 c-13 -14 -257 -905 -257 -936 0 -3 39 -6 88 -6 l87 0 41
158 41 157 140 3 140 3 39 -151 c21 -83 41 -156 45 -161 3 -6 42 -9 91 -7 l85
3 -120 455 c-86 329 -125 461 -140 478 -19 20 -29 22 -142 22 -105 0 -124 -3
-138 -18z m162 -179 c35 -130 71 -269 71 -275 0 -5 -42 -8 -94 -8 l-94 0 41
160 c25 96 47 160 54 160 7 0 17 -17 22 -37z"/>
<path d="M1790 2240 l0 -80 100 0 100 0 0 -320 0 -320 -100 0 -100 0 0 -80 0
-80 285 0 285 0 0 80 0 80 -100 0 -100 0 0 320 0 320 100 0 100 0 0 80 0 80
-285 0 -285 0 0 -80z"/>
</g>
</svg>
