<?xml version="1.0" standalone="no"?>
<!DOCTYPE svg PUBLIC "-//W3C//DTD SVG 20010904//EN"
 "http://www.w3.org/TR/2001/REC-SVG-20010904/DTD/svg10.dtd">
<svg version="1.0" xmlns="http://www.w3.org/2000/svg"
 width="512.000000pt" height="512.000000pt" viewBox="0 0 512.000000 512.000000"
 preserveAspectRatio="xMidYMid meet">
<metadata>
Created by potrace 1.16, written by Peter Selinger 2001-2019
</metadata>
<g transform="translate(0.000000,512.000000) scale(0.100000,-0.100000)"
fill="#000000" stroke="none">
<path d="M2266 5096 c-165 -59 -281 -203 -307 -381 -12 -82 -11 -430 1 -495
15 -82 53 -154 110 -211 28 -28 50 -52 48 -54 -2 -2 -127 -64 -278 -140 -151
-75 -298 -154 -326 -175 -74 -56 -114 -123 -188 -322 -92 -246 -87 -258 102
-258 124 0 166 -11 215 -58 16 -15 35 -39 43 -54 12 -23 114 -514 114 -548 0
-5 -143 -10 -337 -12 -318 -3 -341 -4 -383 -24 -67 -31 -106 -68 -137 -131
-51 -106 -31 -234 49 -315 55 -54 101 -72 201 -76 l87 -4 0 -609 0 -609 -273
0 -273 0 -52 -26 c-29 -14 -67 -43 -85 -65 -56 -65 -67 -117 -67 -315 0 -161
2 -176 20 -194 20 -20 33 -20 1988 -20 l1969 0 19 21 c17 19 19 38 19 208 0
211 -9 244 -80 316 -73 72 -85 75 -397 75 l-278 0 0 610 0 610 83 0 c65 0 92
5 132 24 61 28 116 87 140 149 21 57 17 165 -9 219 -25 52 -82 107 -135 132
-43 20 -67 21 -386 26 l-341 5 49 251 49 251 75 7 c45 3 111 19 162 37 47 17
93 31 102 32 10 1 114 -103 249 -248 129 -137 247 -260 263 -272 100 -75 267
-39 332 71 48 82 43 186 -12 258 -16 19 -139 137 -275 262 -137 125 -248 232
-248 237 0 5 9 27 19 47 46 91 66 182 65 307 0 144 -16 213 -79 341 -98 200
-289 344 -515 390 -98 19 -265 15 -342 -9 l-48 -15 0 193 c0 165 -3 202 -20
258 -40 130 -132 231 -265 294 -59 28 -63 28 -280 31 -212 2 -222 1 -289 -22z
m424 -127 c121 -19 219 -97 260 -205 18 -49 20 -78 20 -273 l0 -218 -41 -28
c-157 -103 -270 -283 -305 -486 -50 -288 82 -585 330 -744 60 -38 192 -95 223
-95 44 -1 44 -6 -7 -270 -28 -140 -50 -256 -50 -258 0 -1 -262 -1 -582 0
l-582 3 -54 280 c-32 170 -63 300 -77 330 -55 120 -161 192 -299 202 -42 3
-76 7 -76 8 0 9 75 196 91 226 10 20 34 50 54 68 20 17 198 112 395 211 314
157 359 182 367 207 15 48 5 73 -43 101 -25 15 -65 39 -89 54 -58 36 -101 97
-115 164 -19 88 -8 456 14 516 37 98 149 190 255 208 69 12 238 11 311 -1z
m808 -754 c172 -40 327 -166 402 -327 34 -72 60 -180 60 -248 0 -165 -98 -363
-229 -463 -240 -183 -561 -168 -778 37 -122 115 -186 256 -187 415 0 104 15
172 62 271 68 144 225 270 392 314 73 19 196 20 278 1z m720 -1334 c129 -118
215 -205 219 -220 8 -32 -15 -72 -51 -89 -36 -18 -76 -2 -119 48 -18 20 -119
130 -226 244 l-194 207 38 39 38 39 41 -36 c23 -20 137 -125 254 -232z m-288
-654 c68 -23 100 -114 64 -177 -39 -64 70 -60 -1457 -60 l-1384 0 -34 23 c-85
57 -63 187 37 217 48 14 2732 11 2774 -3z m-290 -997 l0 -610 -1105 0 -1105 0
0 610 0 610 1105 0 1105 0 0 -610z m693 -773 c53 -34 62 -61 66 -194 l3 -123
-1861 0 -1861 0 0 115 c0 121 8 152 49 189 11 10 35 22 53 26 18 5 818 7 1778
7 1650 -2 1747 -3 1773 -20z"/>
<path d="M3226 4041 c-71 -24 -156 -80 -195 -130 -174 -221 -104 -535 146
-654 64 -30 74 -32 184 -32 113 0 116 1 191 38 317 156 312 609 -8 759 -88 41
-225 49 -318 19z m260 -159 c83 -42 154 -154 154 -242 0 -56 -31 -132 -73
-177 -135 -148 -363 -117 -454 61 -37 72 -37 161 0 232 31 60 92 117 151 138
57 22 169 15 222 -12z"/>
<path d="M1641 1656 c-14 -8 -28 -22 -32 -32 -4 -11 -8 -187 -8 -392 -1 -371
2 -403 33 -424 6 -4 414 -8 907 -8 855 0 897 1 912 18 15 17 17 60 17 414 0
389 0 395 -21 414 -20 18 -51 19 -903 21 -729 2 -885 0 -905 -11z m1679 -426
l0 -290 -785 0 -785 0 0 290 0 290 785 0 785 0 0 -290z"/>
</g>
</svg>
